G04 (created by PCBNEW (2013-mar-25)-stable) date Friday, November 01, 2013 02:29:01 PM*
%MOIN*%
G04 Gerber Fmt 3.4, Leading zero omitted, Abs format*
%FSLAX34Y34*%
G01*
G70*
G90*
G04 APERTURE LIST*
%ADD10C,2.3622e-06*%
%ADD11C,0.08*%
%ADD12C,0.004*%
%ADD13C,0.008*%
%ADD14C,0.005*%
%ADD15C,0.015*%
%ADD16C,0.0035*%
%ADD17R,0.083X0.024*%
%ADD18R,0.061X0.041*%
%ADD19R,0.086X0.066*%
%ADD20R,0.041X0.061*%
%ADD21R,0.039X0.031*%
%ADD22R,0.1005X0.0336*%
%ADD23C,0.085*%
%ADD24C,0.01*%
G04 APERTURE END LIST*
G54D10*
G54D11*
X62550Y-27900D02*
X66700Y-27900D01*
G54D12*
X61500Y-24023D02*
X61842Y-24023D01*
X61671Y-24823D02*
X61671Y-24023D01*
X62042Y-24823D02*
X62042Y-24023D01*
X62328Y-24823D02*
X62328Y-24023D01*
X62528Y-24595D01*
X62728Y-24023D01*
X62728Y-24823D01*
X63014Y-24404D02*
X63214Y-24404D01*
X63300Y-24823D02*
X63014Y-24823D01*
X63014Y-24023D01*
X63300Y-24023D01*
X64014Y-24823D02*
X64014Y-24023D01*
X64357Y-24823D01*
X64357Y-24023D01*
X64642Y-24023D02*
X64642Y-24671D01*
X64671Y-24747D01*
X64700Y-24785D01*
X64757Y-24823D01*
X64871Y-24823D01*
X64928Y-24785D01*
X64957Y-24747D01*
X64985Y-24671D01*
X64985Y-24023D01*
X65185Y-24023D02*
X65528Y-24023D01*
X65357Y-24823D02*
X65357Y-24023D01*
X65700Y-24785D02*
X65785Y-24823D01*
X65928Y-24823D01*
X65985Y-24785D01*
X66014Y-24747D01*
X66042Y-24671D01*
X66042Y-24595D01*
X66014Y-24519D01*
X65985Y-24480D01*
X65928Y-24442D01*
X65814Y-24404D01*
X65757Y-24366D01*
X65728Y-24328D01*
X65700Y-24252D01*
X65700Y-24176D01*
X65728Y-24100D01*
X65757Y-24061D01*
X65814Y-24023D01*
X65957Y-24023D01*
X66042Y-24061D01*
X59057Y-25983D02*
X59057Y-25183D01*
X59057Y-25564D02*
X59399Y-25564D01*
X59399Y-25983D02*
X59399Y-25183D01*
X59685Y-25983D02*
X59685Y-25183D01*
X59914Y-25183D01*
X59971Y-25221D01*
X59999Y-25260D01*
X60028Y-25336D01*
X60028Y-25450D01*
X59999Y-25526D01*
X59971Y-25564D01*
X59914Y-25602D01*
X59685Y-25602D01*
X61028Y-25183D02*
X60742Y-25183D01*
X60714Y-25564D01*
X60742Y-25526D01*
X60799Y-25488D01*
X60942Y-25488D01*
X60999Y-25526D01*
X61028Y-25564D01*
X61057Y-25640D01*
X61057Y-25831D01*
X61028Y-25907D01*
X60999Y-25945D01*
X60942Y-25983D01*
X60799Y-25983D01*
X60742Y-25945D01*
X60714Y-25907D01*
X61257Y-25183D02*
X61628Y-25183D01*
X61428Y-25488D01*
X61514Y-25488D01*
X61571Y-25526D01*
X61599Y-25564D01*
X61628Y-25640D01*
X61628Y-25831D01*
X61599Y-25907D01*
X61571Y-25945D01*
X61514Y-25983D01*
X61342Y-25983D01*
X61285Y-25945D01*
X61257Y-25907D01*
X61828Y-25183D02*
X62228Y-25183D01*
X61971Y-25983D01*
X62571Y-25183D02*
X62628Y-25183D01*
X62685Y-25221D01*
X62714Y-25260D01*
X62742Y-25336D01*
X62771Y-25488D01*
X62771Y-25679D01*
X62742Y-25831D01*
X62714Y-25907D01*
X62685Y-25945D01*
X62628Y-25983D01*
X62571Y-25983D01*
X62514Y-25945D01*
X62485Y-25907D01*
X62457Y-25831D01*
X62428Y-25679D01*
X62428Y-25488D01*
X62457Y-25336D01*
X62485Y-25260D01*
X62514Y-25221D01*
X62571Y-25183D01*
X63485Y-25983D02*
X63485Y-25183D01*
X63714Y-25183D01*
X63771Y-25221D01*
X63800Y-25260D01*
X63828Y-25336D01*
X63828Y-25450D01*
X63800Y-25526D01*
X63771Y-25564D01*
X63714Y-25602D01*
X63485Y-25602D01*
X64428Y-25983D02*
X64228Y-25602D01*
X64085Y-25983D02*
X64085Y-25183D01*
X64314Y-25183D01*
X64371Y-25221D01*
X64400Y-25260D01*
X64428Y-25336D01*
X64428Y-25450D01*
X64400Y-25526D01*
X64371Y-25564D01*
X64314Y-25602D01*
X64085Y-25602D01*
X64800Y-25183D02*
X64914Y-25183D01*
X64971Y-25221D01*
X65028Y-25298D01*
X65057Y-25450D01*
X65057Y-25717D01*
X65028Y-25869D01*
X64971Y-25945D01*
X64914Y-25983D01*
X64800Y-25983D01*
X64742Y-25945D01*
X64685Y-25869D01*
X64657Y-25717D01*
X64657Y-25450D01*
X64685Y-25298D01*
X64742Y-25221D01*
X64800Y-25183D01*
X65657Y-25907D02*
X65628Y-25945D01*
X65542Y-25983D01*
X65485Y-25983D01*
X65400Y-25945D01*
X65342Y-25869D01*
X65314Y-25793D01*
X65285Y-25640D01*
X65285Y-25526D01*
X65314Y-25374D01*
X65342Y-25298D01*
X65400Y-25221D01*
X65485Y-25183D01*
X65542Y-25183D01*
X65628Y-25221D01*
X65657Y-25260D01*
X65914Y-25564D02*
X66114Y-25564D01*
X66200Y-25983D02*
X65914Y-25983D01*
X65914Y-25183D01*
X66200Y-25183D01*
X66428Y-25945D02*
X66514Y-25983D01*
X66657Y-25983D01*
X66714Y-25945D01*
X66742Y-25907D01*
X66771Y-25831D01*
X66771Y-25755D01*
X66742Y-25679D01*
X66714Y-25640D01*
X66657Y-25602D01*
X66542Y-25564D01*
X66485Y-25526D01*
X66457Y-25488D01*
X66428Y-25412D01*
X66428Y-25336D01*
X66457Y-25260D01*
X66485Y-25221D01*
X66542Y-25183D01*
X66685Y-25183D01*
X66771Y-25221D01*
X67000Y-25945D02*
X67085Y-25983D01*
X67228Y-25983D01*
X67285Y-25945D01*
X67314Y-25907D01*
X67342Y-25831D01*
X67342Y-25755D01*
X67314Y-25679D01*
X67285Y-25640D01*
X67228Y-25602D01*
X67114Y-25564D01*
X67057Y-25526D01*
X67028Y-25488D01*
X67000Y-25412D01*
X67000Y-25336D01*
X67028Y-25260D01*
X67057Y-25221D01*
X67114Y-25183D01*
X67257Y-25183D01*
X67342Y-25221D01*
X67714Y-25183D02*
X67828Y-25183D01*
X67885Y-25221D01*
X67942Y-25298D01*
X67971Y-25450D01*
X67971Y-25717D01*
X67942Y-25869D01*
X67885Y-25945D01*
X67828Y-25983D01*
X67714Y-25983D01*
X67657Y-25945D01*
X67600Y-25869D01*
X67571Y-25717D01*
X67571Y-25450D01*
X67600Y-25298D01*
X67657Y-25221D01*
X67714Y-25183D01*
X68571Y-25983D02*
X68371Y-25602D01*
X68228Y-25983D02*
X68228Y-25183D01*
X68457Y-25183D01*
X68514Y-25221D01*
X68542Y-25260D01*
X68571Y-25336D01*
X68571Y-25450D01*
X68542Y-25526D01*
X68514Y-25564D01*
X68457Y-25602D01*
X68228Y-25602D01*
X59742Y-26343D02*
X59942Y-27143D01*
X60142Y-26343D01*
X60285Y-26343D02*
X60657Y-26343D01*
X60457Y-26648D01*
X60542Y-26648D01*
X60599Y-26686D01*
X60628Y-26724D01*
X60657Y-26800D01*
X60657Y-26991D01*
X60628Y-27067D01*
X60599Y-27105D01*
X60542Y-27143D01*
X60371Y-27143D01*
X60314Y-27105D01*
X60285Y-27067D01*
X60914Y-27067D02*
X60942Y-27105D01*
X60914Y-27143D01*
X60885Y-27105D01*
X60914Y-27067D01*
X60914Y-27143D01*
X61514Y-27143D02*
X61171Y-27143D01*
X61342Y-27143D02*
X61342Y-26343D01*
X61285Y-26458D01*
X61228Y-26534D01*
X61171Y-26572D01*
X62542Y-27143D02*
X62200Y-27143D01*
X62371Y-27143D02*
X62371Y-26343D01*
X62314Y-26458D01*
X62257Y-26534D01*
X62200Y-26572D01*
X62914Y-26343D02*
X62971Y-26343D01*
X63028Y-26381D01*
X63057Y-26420D01*
X63085Y-26496D01*
X63114Y-26648D01*
X63114Y-26839D01*
X63085Y-26991D01*
X63057Y-27067D01*
X63028Y-27105D01*
X62971Y-27143D01*
X62914Y-27143D01*
X62857Y-27105D01*
X62828Y-27067D01*
X62800Y-26991D01*
X62771Y-26839D01*
X62771Y-26648D01*
X62800Y-26496D01*
X62828Y-26420D01*
X62857Y-26381D01*
X62914Y-26343D01*
X63800Y-26305D02*
X63285Y-27334D01*
X63971Y-26420D02*
X64000Y-26381D01*
X64057Y-26343D01*
X64200Y-26343D01*
X64257Y-26381D01*
X64285Y-26420D01*
X64314Y-26496D01*
X64314Y-26572D01*
X64285Y-26686D01*
X63942Y-27143D01*
X64314Y-27143D01*
X64857Y-26343D02*
X64571Y-26343D01*
X64542Y-26724D01*
X64571Y-26686D01*
X64628Y-26648D01*
X64771Y-26648D01*
X64828Y-26686D01*
X64857Y-26724D01*
X64885Y-26800D01*
X64885Y-26991D01*
X64857Y-27067D01*
X64828Y-27105D01*
X64771Y-27143D01*
X64628Y-27143D01*
X64571Y-27105D01*
X64542Y-27067D01*
X65571Y-26305D02*
X65057Y-27334D01*
X65742Y-26420D02*
X65771Y-26381D01*
X65828Y-26343D01*
X65971Y-26343D01*
X66028Y-26381D01*
X66057Y-26420D01*
X66085Y-26496D01*
X66085Y-26572D01*
X66057Y-26686D01*
X65714Y-27143D01*
X66085Y-27143D01*
X66457Y-26343D02*
X66514Y-26343D01*
X66571Y-26381D01*
X66600Y-26420D01*
X66628Y-26496D01*
X66657Y-26648D01*
X66657Y-26839D01*
X66628Y-26991D01*
X66600Y-27067D01*
X66571Y-27105D01*
X66514Y-27143D01*
X66457Y-27143D01*
X66400Y-27105D01*
X66371Y-27067D01*
X66342Y-26991D01*
X66314Y-26839D01*
X66314Y-26648D01*
X66342Y-26496D01*
X66371Y-26420D01*
X66400Y-26381D01*
X66457Y-26343D01*
X67228Y-27143D02*
X66885Y-27143D01*
X67057Y-27143D02*
X67057Y-26343D01*
X67000Y-26458D01*
X66942Y-26534D01*
X66885Y-26572D01*
X67428Y-26343D02*
X67800Y-26343D01*
X67600Y-26648D01*
X67685Y-26648D01*
X67742Y-26686D01*
X67771Y-26724D01*
X67800Y-26800D01*
X67800Y-26991D01*
X67771Y-27067D01*
X67742Y-27105D01*
X67685Y-27143D01*
X67514Y-27143D01*
X67457Y-27105D01*
X67428Y-27067D01*
X60028Y-28265D02*
X60114Y-28303D01*
X60257Y-28303D01*
X60314Y-28265D01*
X60342Y-28227D01*
X60371Y-28151D01*
X60371Y-28075D01*
X60342Y-27999D01*
X60314Y-27960D01*
X60257Y-27922D01*
X60142Y-27884D01*
X60085Y-27846D01*
X60057Y-27808D01*
X60028Y-27732D01*
X60028Y-27656D01*
X60057Y-27580D01*
X60085Y-27541D01*
X60142Y-27503D01*
X60285Y-27503D01*
X60371Y-27541D01*
X61057Y-27465D02*
X60542Y-28494D01*
X61257Y-28303D02*
X61257Y-27503D01*
X61599Y-28303D01*
X61599Y-27503D01*
G54D13*
X24450Y-22500D02*
X21050Y-22500D01*
X22150Y-18750D02*
G75*
G03X22150Y-18750I-100J0D01*
G74*
G01*
X24450Y-18500D02*
X21050Y-18500D01*
G54D14*
X38200Y-33850D02*
X38200Y-34850D01*
X37300Y-33850D02*
X37300Y-34850D01*
X40650Y-33850D02*
X40650Y-34850D01*
X39750Y-33850D02*
X39750Y-34850D01*
X65450Y-36450D02*
X65450Y-36050D01*
X65650Y-36250D02*
X65250Y-36250D01*
X65650Y-36050D02*
X65650Y-34250D01*
X66850Y-36050D02*
X66850Y-34250D01*
X69500Y-35550D02*
X68500Y-35550D01*
X69500Y-36450D02*
X68500Y-36450D01*
G54D13*
X38550Y-28890D02*
X38550Y-28610D01*
X38950Y-28890D02*
X38950Y-28610D01*
X38550Y-28610D02*
X38950Y-28610D01*
X37550Y-28890D02*
X37550Y-28610D01*
X37950Y-28890D02*
X37950Y-28610D01*
X37550Y-28610D02*
X37950Y-28610D01*
X32750Y-18750D02*
G75*
G03X32750Y-18750I-150J0D01*
G74*
G01*
X35600Y-24600D02*
X31400Y-24600D01*
X35600Y-18400D02*
X31400Y-18400D01*
G54D14*
X33200Y-17500D02*
X33200Y-16500D01*
X32300Y-17500D02*
X32300Y-16500D01*
X34950Y-17500D02*
X34950Y-16500D01*
X34050Y-17500D02*
X34050Y-16500D01*
G54D15*
X24500Y-11750D02*
X51000Y-11750D01*
X53500Y-17850D02*
X45450Y-17850D01*
X53500Y-14250D02*
X53500Y-17850D01*
X53500Y-25150D02*
X53500Y-30250D01*
X53500Y-25150D02*
X45450Y-25150D01*
X45450Y-25150D02*
X45450Y-17850D01*
X53500Y-30750D02*
X53500Y-30250D01*
X24500Y-33250D02*
X51000Y-33250D01*
X19500Y-28250D02*
X19500Y-16750D01*
X24500Y-33250D02*
G75*
G02X19500Y-28250I0J5000D01*
G74*
G01*
X19500Y-16750D02*
G75*
G02X24500Y-11750I5000J0D01*
G74*
G01*
X53500Y-30750D02*
G75*
G02X51000Y-33250I-2500J0D01*
G74*
G01*
X53500Y-14250D02*
G75*
G03X51000Y-11750I-2500J0D01*
G74*
G01*
G54D16*
X22112Y-17643D02*
X21874Y-17810D01*
X22112Y-17929D02*
X21612Y-17929D01*
X21612Y-17738D01*
X21636Y-17690D01*
X21660Y-17667D01*
X21707Y-17643D01*
X21779Y-17643D01*
X21826Y-17667D01*
X21850Y-17690D01*
X21874Y-17738D01*
X21874Y-17929D01*
X22112Y-17167D02*
X22112Y-17452D01*
X22112Y-17310D02*
X21612Y-17310D01*
X21683Y-17357D01*
X21731Y-17405D01*
X21755Y-17452D01*
X23579Y-17952D02*
X23912Y-17952D01*
X23388Y-18071D02*
X23745Y-18190D01*
X23745Y-17881D01*
X23912Y-17690D02*
X23412Y-17690D01*
X23912Y-17405D02*
X23626Y-17619D01*
X23412Y-17405D02*
X23698Y-17690D01*
X23412Y-17238D02*
X23412Y-16905D01*
X23912Y-17119D01*
X37151Y-34391D02*
X37032Y-34475D01*
X37151Y-34534D02*
X36901Y-34534D01*
X36901Y-34439D01*
X36913Y-34415D01*
X36925Y-34403D01*
X36948Y-34391D01*
X36984Y-34391D01*
X37008Y-34403D01*
X37020Y-34415D01*
X37032Y-34439D01*
X37032Y-34534D01*
X36925Y-34296D02*
X36913Y-34284D01*
X36901Y-34260D01*
X36901Y-34201D01*
X36913Y-34177D01*
X36925Y-34165D01*
X36948Y-34153D01*
X36972Y-34153D01*
X37008Y-34165D01*
X37151Y-34308D01*
X37151Y-34153D01*
X38601Y-34516D02*
X38601Y-34659D01*
X38601Y-34588D02*
X38351Y-34588D01*
X38386Y-34611D01*
X38410Y-34635D01*
X38422Y-34659D01*
X38351Y-34290D02*
X38351Y-34409D01*
X38470Y-34421D01*
X38458Y-34409D01*
X38446Y-34385D01*
X38446Y-34326D01*
X38458Y-34302D01*
X38470Y-34290D01*
X38494Y-34278D01*
X38553Y-34278D01*
X38577Y-34290D01*
X38589Y-34302D01*
X38601Y-34326D01*
X38601Y-34385D01*
X38589Y-34409D01*
X38577Y-34421D01*
X38351Y-34123D02*
X38351Y-34100D01*
X38363Y-34076D01*
X38375Y-34064D01*
X38398Y-34052D01*
X38446Y-34040D01*
X38505Y-34040D01*
X38553Y-34052D01*
X38577Y-34064D01*
X38589Y-34076D01*
X38601Y-34100D01*
X38601Y-34123D01*
X38589Y-34147D01*
X38577Y-34159D01*
X38553Y-34171D01*
X38505Y-34183D01*
X38446Y-34183D01*
X38398Y-34171D01*
X38375Y-34159D01*
X38363Y-34147D01*
X38351Y-34123D01*
X39601Y-34391D02*
X39482Y-34475D01*
X39601Y-34534D02*
X39351Y-34534D01*
X39351Y-34439D01*
X39363Y-34415D01*
X39375Y-34403D01*
X39398Y-34391D01*
X39434Y-34391D01*
X39458Y-34403D01*
X39470Y-34415D01*
X39482Y-34439D01*
X39482Y-34534D01*
X39351Y-34308D02*
X39351Y-34153D01*
X39446Y-34236D01*
X39446Y-34201D01*
X39458Y-34177D01*
X39470Y-34165D01*
X39494Y-34153D01*
X39553Y-34153D01*
X39577Y-34165D01*
X39589Y-34177D01*
X39601Y-34201D01*
X39601Y-34272D01*
X39589Y-34296D01*
X39577Y-34308D01*
X41051Y-34516D02*
X41051Y-34659D01*
X41051Y-34588D02*
X40801Y-34588D01*
X40836Y-34611D01*
X40860Y-34635D01*
X40872Y-34659D01*
X40801Y-34290D02*
X40801Y-34409D01*
X40920Y-34421D01*
X40908Y-34409D01*
X40896Y-34385D01*
X40896Y-34326D01*
X40908Y-34302D01*
X40920Y-34290D01*
X40944Y-34278D01*
X41003Y-34278D01*
X41027Y-34290D01*
X41039Y-34302D01*
X41051Y-34326D01*
X41051Y-34385D01*
X41039Y-34409D01*
X41027Y-34421D01*
X40801Y-34123D02*
X40801Y-34100D01*
X40813Y-34076D01*
X40825Y-34064D01*
X40848Y-34052D01*
X40896Y-34040D01*
X40955Y-34040D01*
X41003Y-34052D01*
X41027Y-34064D01*
X41039Y-34076D01*
X41051Y-34100D01*
X41051Y-34123D01*
X41039Y-34147D01*
X41027Y-34159D01*
X41003Y-34171D01*
X40955Y-34183D01*
X40896Y-34183D01*
X40848Y-34171D01*
X40825Y-34159D01*
X40813Y-34147D01*
X40801Y-34123D01*
X67242Y-35200D02*
X67257Y-35214D01*
X67271Y-35257D01*
X67271Y-35285D01*
X67257Y-35328D01*
X67228Y-35357D01*
X67200Y-35371D01*
X67142Y-35385D01*
X67100Y-35385D01*
X67042Y-35371D01*
X67014Y-35357D01*
X66985Y-35328D01*
X66971Y-35285D01*
X66971Y-35257D01*
X66985Y-35214D01*
X67000Y-35200D01*
X67271Y-34914D02*
X67271Y-35085D01*
X67271Y-35000D02*
X66971Y-35000D01*
X67014Y-35028D01*
X67042Y-35057D01*
X67057Y-35085D01*
X65521Y-35471D02*
X65521Y-35642D01*
X65521Y-35557D02*
X65221Y-35557D01*
X65264Y-35585D01*
X65292Y-35614D01*
X65307Y-35642D01*
X65221Y-35285D02*
X65221Y-35257D01*
X65235Y-35228D01*
X65250Y-35214D01*
X65278Y-35200D01*
X65335Y-35185D01*
X65407Y-35185D01*
X65464Y-35200D01*
X65492Y-35214D01*
X65507Y-35228D01*
X65521Y-35257D01*
X65521Y-35285D01*
X65507Y-35314D01*
X65492Y-35328D01*
X65464Y-35342D01*
X65407Y-35357D01*
X65335Y-35357D01*
X65278Y-35342D01*
X65250Y-35328D01*
X65235Y-35314D01*
X65221Y-35285D01*
X65321Y-34928D02*
X65521Y-34928D01*
X65321Y-35057D02*
X65478Y-35057D01*
X65507Y-35042D01*
X65521Y-35014D01*
X65521Y-34971D01*
X65507Y-34942D01*
X65492Y-34928D01*
X65364Y-34685D02*
X65364Y-34785D01*
X65521Y-34785D02*
X65221Y-34785D01*
X65221Y-34642D01*
X68791Y-35270D02*
X68708Y-35270D01*
X68708Y-35401D02*
X68708Y-35151D01*
X68827Y-35151D01*
X69005Y-35270D02*
X69041Y-35282D01*
X69053Y-35294D01*
X69065Y-35317D01*
X69065Y-35353D01*
X69053Y-35377D01*
X69041Y-35389D01*
X69017Y-35401D01*
X68922Y-35401D01*
X68922Y-35151D01*
X69005Y-35151D01*
X69029Y-35163D01*
X69041Y-35175D01*
X69053Y-35198D01*
X69053Y-35222D01*
X69041Y-35246D01*
X69029Y-35258D01*
X69005Y-35270D01*
X68922Y-35270D01*
X69303Y-35401D02*
X69160Y-35401D01*
X69232Y-35401D02*
X69232Y-35151D01*
X69208Y-35186D01*
X69184Y-35210D01*
X69160Y-35222D01*
X68827Y-36801D02*
X68684Y-36801D01*
X68755Y-36801D02*
X68755Y-36551D01*
X68732Y-36586D01*
X68708Y-36610D01*
X68684Y-36622D01*
X68934Y-36801D02*
X68934Y-36551D01*
X69077Y-36801D02*
X68970Y-36658D01*
X69077Y-36551D02*
X68934Y-36694D01*
X69160Y-36551D02*
X69327Y-36551D01*
X69160Y-36801D01*
X69327Y-36801D01*
X39401Y-28934D02*
X39151Y-28934D01*
X39151Y-28875D01*
X39163Y-28839D01*
X39186Y-28815D01*
X39210Y-28803D01*
X39258Y-28791D01*
X39294Y-28791D01*
X39341Y-28803D01*
X39365Y-28815D01*
X39389Y-28839D01*
X39401Y-28875D01*
X39401Y-28934D01*
X39175Y-28696D02*
X39163Y-28684D01*
X39151Y-28660D01*
X39151Y-28601D01*
X39163Y-28577D01*
X39175Y-28565D01*
X39198Y-28553D01*
X39222Y-28553D01*
X39258Y-28565D01*
X39401Y-28708D01*
X39401Y-28553D01*
X37351Y-28934D02*
X37101Y-28934D01*
X37101Y-28875D01*
X37113Y-28839D01*
X37136Y-28815D01*
X37160Y-28803D01*
X37208Y-28791D01*
X37244Y-28791D01*
X37291Y-28803D01*
X37315Y-28815D01*
X37339Y-28839D01*
X37351Y-28875D01*
X37351Y-28934D01*
X37351Y-28553D02*
X37351Y-28696D01*
X37351Y-28625D02*
X37101Y-28625D01*
X37136Y-28648D01*
X37160Y-28672D01*
X37172Y-28696D01*
X30202Y-21880D02*
X30607Y-21880D01*
X30654Y-21857D01*
X30678Y-21833D01*
X30702Y-21785D01*
X30702Y-21690D01*
X30678Y-21642D01*
X30654Y-21619D01*
X30607Y-21595D01*
X30202Y-21595D01*
X30250Y-21380D02*
X30226Y-21357D01*
X30202Y-21309D01*
X30202Y-21190D01*
X30226Y-21142D01*
X30250Y-21119D01*
X30297Y-21095D01*
X30345Y-21095D01*
X30416Y-21119D01*
X30702Y-21404D01*
X30702Y-21095D01*
X36102Y-23523D02*
X36102Y-23190D01*
X36602Y-23404D01*
X36269Y-22785D02*
X36602Y-22785D01*
X36078Y-22904D02*
X36435Y-23023D01*
X36435Y-22714D01*
X36602Y-22285D02*
X36602Y-22523D01*
X36102Y-22523D01*
X36102Y-22190D02*
X36602Y-22023D01*
X36102Y-21857D01*
X36554Y-21404D02*
X36578Y-21428D01*
X36602Y-21500D01*
X36602Y-21547D01*
X36578Y-21619D01*
X36530Y-21666D01*
X36483Y-21690D01*
X36388Y-21714D01*
X36316Y-21714D01*
X36221Y-21690D01*
X36173Y-21666D01*
X36126Y-21619D01*
X36102Y-21547D01*
X36102Y-21500D01*
X36126Y-21428D01*
X36150Y-21404D01*
X36269Y-20976D02*
X36602Y-20976D01*
X36078Y-21095D02*
X36435Y-21214D01*
X36435Y-20904D01*
X36150Y-20738D02*
X36126Y-20714D01*
X36102Y-20666D01*
X36102Y-20547D01*
X36126Y-20500D01*
X36150Y-20476D01*
X36197Y-20452D01*
X36245Y-20452D01*
X36316Y-20476D01*
X36602Y-20761D01*
X36602Y-20452D01*
X36269Y-20023D02*
X36602Y-20023D01*
X36078Y-20142D02*
X36435Y-20261D01*
X36435Y-19952D01*
X36102Y-19523D02*
X36102Y-19761D01*
X36340Y-19785D01*
X36316Y-19761D01*
X36292Y-19714D01*
X36292Y-19595D01*
X36316Y-19547D01*
X36340Y-19523D01*
X36388Y-19500D01*
X36507Y-19500D01*
X36554Y-19523D01*
X36578Y-19547D01*
X36602Y-19595D01*
X36602Y-19714D01*
X36578Y-19761D01*
X36554Y-19785D01*
X33577Y-17041D02*
X33589Y-17053D01*
X33601Y-17089D01*
X33601Y-17113D01*
X33589Y-17148D01*
X33565Y-17172D01*
X33541Y-17184D01*
X33494Y-17196D01*
X33458Y-17196D01*
X33410Y-17184D01*
X33386Y-17172D01*
X33363Y-17148D01*
X33351Y-17113D01*
X33351Y-17089D01*
X33363Y-17053D01*
X33375Y-17041D01*
X33375Y-16946D02*
X33363Y-16934D01*
X33351Y-16910D01*
X33351Y-16851D01*
X33363Y-16827D01*
X33375Y-16815D01*
X33398Y-16803D01*
X33422Y-16803D01*
X33458Y-16815D01*
X33601Y-16958D01*
X33601Y-16803D01*
X32151Y-17267D02*
X32151Y-17410D01*
X32151Y-17339D02*
X31901Y-17339D01*
X31936Y-17363D01*
X31960Y-17386D01*
X31972Y-17410D01*
X31901Y-17113D02*
X31901Y-17089D01*
X31913Y-17065D01*
X31925Y-17053D01*
X31948Y-17041D01*
X31996Y-17029D01*
X32055Y-17029D01*
X32103Y-17041D01*
X32127Y-17053D01*
X32139Y-17065D01*
X32151Y-17089D01*
X32151Y-17113D01*
X32139Y-17136D01*
X32127Y-17148D01*
X32103Y-17160D01*
X32055Y-17172D01*
X31996Y-17172D01*
X31948Y-17160D01*
X31925Y-17148D01*
X31913Y-17136D01*
X31901Y-17113D01*
X31984Y-16922D02*
X32151Y-16922D01*
X32008Y-16922D02*
X31996Y-16910D01*
X31984Y-16886D01*
X31984Y-16851D01*
X31996Y-16827D01*
X32020Y-16815D01*
X32151Y-16815D01*
X32020Y-16613D02*
X32020Y-16696D01*
X32151Y-16696D02*
X31901Y-16696D01*
X31901Y-16577D01*
X35327Y-17041D02*
X35339Y-17053D01*
X35351Y-17089D01*
X35351Y-17113D01*
X35339Y-17148D01*
X35315Y-17172D01*
X35291Y-17184D01*
X35244Y-17196D01*
X35208Y-17196D01*
X35160Y-17184D01*
X35136Y-17172D01*
X35113Y-17148D01*
X35101Y-17113D01*
X35101Y-17089D01*
X35113Y-17053D01*
X35125Y-17041D01*
X35101Y-16958D02*
X35101Y-16803D01*
X35196Y-16886D01*
X35196Y-16851D01*
X35208Y-16827D01*
X35220Y-16815D01*
X35244Y-16803D01*
X35303Y-16803D01*
X35327Y-16815D01*
X35339Y-16827D01*
X35351Y-16851D01*
X35351Y-16922D01*
X35339Y-16946D01*
X35327Y-16958D01*
X33901Y-17267D02*
X33901Y-17410D01*
X33901Y-17339D02*
X33651Y-17339D01*
X33686Y-17363D01*
X33710Y-17386D01*
X33722Y-17410D01*
X33651Y-17113D02*
X33651Y-17089D01*
X33663Y-17065D01*
X33675Y-17053D01*
X33698Y-17041D01*
X33746Y-17029D01*
X33805Y-17029D01*
X33853Y-17041D01*
X33877Y-17053D01*
X33889Y-17065D01*
X33901Y-17089D01*
X33901Y-17113D01*
X33889Y-17136D01*
X33877Y-17148D01*
X33853Y-17160D01*
X33805Y-17172D01*
X33746Y-17172D01*
X33698Y-17160D01*
X33675Y-17148D01*
X33663Y-17136D01*
X33651Y-17113D01*
X33734Y-16922D02*
X33901Y-16922D01*
X33758Y-16922D02*
X33746Y-16910D01*
X33734Y-16886D01*
X33734Y-16851D01*
X33746Y-16827D01*
X33770Y-16815D01*
X33901Y-16815D01*
X33770Y-16613D02*
X33770Y-16696D01*
X33901Y-16696D02*
X33651Y-16696D01*
X33651Y-16577D01*
%LPC*%
G54D17*
X21390Y-18750D03*
X21390Y-19250D03*
X21390Y-19750D03*
X21390Y-20250D03*
X21390Y-20750D03*
X21390Y-21250D03*
X21390Y-21750D03*
X21390Y-22250D03*
X24110Y-22250D03*
X24110Y-21750D03*
X24110Y-21250D03*
X24110Y-20750D03*
X24110Y-20250D03*
X24110Y-19750D03*
X24110Y-19250D03*
X24110Y-18750D03*
G54D18*
X37750Y-33970D03*
X37750Y-34730D03*
X40200Y-33970D03*
X40200Y-34730D03*
G54D19*
X66250Y-35800D03*
X66250Y-34500D03*
G54D20*
X69380Y-36000D03*
X68620Y-36000D03*
G54D21*
X38750Y-29190D03*
X38750Y-28310D03*
X37750Y-29190D03*
X37750Y-28310D03*
G54D22*
X31768Y-18750D03*
X31768Y-19250D03*
X31768Y-19750D03*
X31768Y-20250D03*
X31768Y-20750D03*
X31768Y-21250D03*
X31768Y-21750D03*
X31768Y-22250D03*
X31768Y-22750D03*
X31768Y-23250D03*
X31768Y-23750D03*
X31768Y-24250D03*
X35232Y-24250D03*
X35232Y-23750D03*
X35232Y-23250D03*
X35232Y-22750D03*
X35232Y-22250D03*
X35232Y-21750D03*
X35232Y-21250D03*
X35232Y-20750D03*
X35232Y-20250D03*
X35232Y-19750D03*
X35232Y-19250D03*
X35232Y-18750D03*
G54D18*
X32750Y-17380D03*
X32750Y-16620D03*
X34500Y-17380D03*
X34500Y-16620D03*
G54D23*
X45750Y-32500D03*
X45750Y-31500D03*
X44750Y-32500D03*
X44750Y-31500D03*
X43750Y-32500D03*
X43750Y-31500D03*
X42750Y-32500D03*
X42750Y-31500D03*
X41750Y-32500D03*
X41750Y-31500D03*
X40750Y-32500D03*
X40750Y-31500D03*
X39750Y-32500D03*
X39750Y-31500D03*
X38750Y-32500D03*
X38750Y-31500D03*
X37750Y-32500D03*
X37750Y-31500D03*
X36750Y-32500D03*
X36750Y-31500D03*
X35750Y-32500D03*
X35750Y-31500D03*
X34750Y-32500D03*
X34750Y-31500D03*
X33750Y-32500D03*
X33750Y-31500D03*
X32750Y-32500D03*
X32750Y-31500D03*
X31750Y-32500D03*
X31750Y-31500D03*
X30750Y-32500D03*
X30750Y-31500D03*
X29750Y-32500D03*
X29750Y-31500D03*
X28750Y-32500D03*
X28750Y-31500D03*
X27750Y-32500D03*
X27750Y-31500D03*
X26750Y-32500D03*
X26750Y-31500D03*
X25750Y-32500D03*
X25750Y-31500D03*
X24750Y-32500D03*
X24750Y-31500D03*
X23750Y-32500D03*
X23750Y-31500D03*
X45750Y-13500D03*
X45750Y-12500D03*
X44750Y-13500D03*
X44750Y-12500D03*
X43750Y-13500D03*
X43750Y-12500D03*
X42750Y-13500D03*
X42750Y-12500D03*
X41750Y-13500D03*
X41750Y-12500D03*
X40750Y-13500D03*
X40750Y-12500D03*
X39750Y-13500D03*
X39750Y-12500D03*
X38750Y-13500D03*
X38750Y-12500D03*
X37750Y-13500D03*
X37750Y-12500D03*
X36750Y-13500D03*
X36750Y-12500D03*
X35750Y-13500D03*
X35750Y-12500D03*
X34750Y-13500D03*
X34750Y-12500D03*
X33750Y-13500D03*
X33750Y-12500D03*
X32750Y-13500D03*
X32750Y-12500D03*
X31750Y-13500D03*
X31750Y-12500D03*
X30750Y-13500D03*
X30750Y-12500D03*
X29750Y-13500D03*
X29750Y-12500D03*
X28750Y-13500D03*
X28750Y-12500D03*
X27750Y-13500D03*
X27750Y-12500D03*
X26750Y-13500D03*
X26750Y-12500D03*
X25750Y-13500D03*
X25750Y-12500D03*
X24750Y-13500D03*
X24750Y-12500D03*
X23750Y-13500D03*
X23750Y-12500D03*
G54D10*
G36*
X43250Y-39850D02*
X13900Y-39850D01*
X13900Y-37100D01*
X43250Y-37100D01*
X43250Y-39850D01*
X43250Y-39850D01*
G37*
G54D24*
X43250Y-39850D02*
X13900Y-39850D01*
X13900Y-37100D01*
X43250Y-37100D01*
X43250Y-39850D01*
G54D10*
G36*
X80500Y-39850D02*
X51150Y-39850D01*
X51150Y-37100D01*
X80500Y-37100D01*
X80500Y-39850D01*
X80500Y-39850D01*
G37*
G54D24*
X80500Y-39850D02*
X51150Y-39850D01*
X51150Y-37100D01*
X80500Y-37100D01*
X80500Y-39850D01*
M02*
