G04 (created by PCBNEW (2013-mar-25)-stable) date Friday, November 01, 2013 02:29:01 PM*
%MOIN*%
G04 Gerber Fmt 3.4, Leading zero omitted, Abs format*
%FSLAX34Y34*%
G01*
G70*
G90*
G04 APERTURE LIST*
%ADD10C,2.3622e-06*%
%ADD11C,0.085*%
%ADD12C,0.01*%
G04 APERTURE END LIST*
G54D10*
%LPC*%
G54D11*
X45750Y-32500D03*
X45750Y-31500D03*
X44750Y-32500D03*
X44750Y-31500D03*
X43750Y-32500D03*
X43750Y-31500D03*
X42750Y-32500D03*
X42750Y-31500D03*
X41750Y-32500D03*
X41750Y-31500D03*
X40750Y-32500D03*
X40750Y-31500D03*
X39750Y-32500D03*
X39750Y-31500D03*
X38750Y-32500D03*
X38750Y-31500D03*
X37750Y-32500D03*
X37750Y-31500D03*
X36750Y-32500D03*
X36750Y-31500D03*
X35750Y-32500D03*
X35750Y-31500D03*
X34750Y-32500D03*
X34750Y-31500D03*
X33750Y-32500D03*
X33750Y-31500D03*
X32750Y-32500D03*
X32750Y-31500D03*
X31750Y-32500D03*
X31750Y-31500D03*
X30750Y-32500D03*
X30750Y-31500D03*
X29750Y-32500D03*
X29750Y-31500D03*
X28750Y-32500D03*
X28750Y-31500D03*
X27750Y-32500D03*
X27750Y-31500D03*
X26750Y-32500D03*
X26750Y-31500D03*
X25750Y-32500D03*
X25750Y-31500D03*
X24750Y-32500D03*
X24750Y-31500D03*
X23750Y-32500D03*
X23750Y-31500D03*
X45750Y-13500D03*
X45750Y-12500D03*
X44750Y-13500D03*
X44750Y-12500D03*
X43750Y-13500D03*
X43750Y-12500D03*
X42750Y-13500D03*
X42750Y-12500D03*
X41750Y-13500D03*
X41750Y-12500D03*
X40750Y-13500D03*
X40750Y-12500D03*
X39750Y-13500D03*
X39750Y-12500D03*
X38750Y-13500D03*
X38750Y-12500D03*
X37750Y-13500D03*
X37750Y-12500D03*
X36750Y-13500D03*
X36750Y-12500D03*
X35750Y-13500D03*
X35750Y-12500D03*
X34750Y-13500D03*
X34750Y-12500D03*
X33750Y-13500D03*
X33750Y-12500D03*
X32750Y-13500D03*
X32750Y-12500D03*
X31750Y-13500D03*
X31750Y-12500D03*
X30750Y-13500D03*
X30750Y-12500D03*
X29750Y-13500D03*
X29750Y-12500D03*
X28750Y-13500D03*
X28750Y-12500D03*
X27750Y-13500D03*
X27750Y-12500D03*
X26750Y-13500D03*
X26750Y-12500D03*
X25750Y-13500D03*
X25750Y-12500D03*
X24750Y-13500D03*
X24750Y-12500D03*
X23750Y-13500D03*
X23750Y-12500D03*
G54D10*
G36*
X43250Y-39850D02*
X13900Y-39850D01*
X13900Y-37100D01*
X43250Y-37100D01*
X43250Y-39850D01*
X43250Y-39850D01*
G37*
G54D12*
X43250Y-39850D02*
X13900Y-39850D01*
X13900Y-37100D01*
X43250Y-37100D01*
X43250Y-39850D01*
G54D10*
G36*
X80500Y-39850D02*
X51150Y-39850D01*
X51150Y-37100D01*
X80500Y-37100D01*
X80500Y-39850D01*
X80500Y-39850D01*
G37*
G54D12*
X80500Y-39850D02*
X51150Y-39850D01*
X51150Y-37100D01*
X80500Y-37100D01*
X80500Y-39850D01*
M02*
