M48
INCH,TZ
T1C0.020
T2C0.045
T3C0.050
%
G90
G05
T1
X030700Y-018250
X030700Y-019250
X030700Y-024250
X032750Y-015750
X034500Y-015750
X036250Y-030800
X036350Y-024250
X037100Y-030600
X037400Y-030250
X037750Y-025250
X037750Y-027300
X037750Y-035300
X038700Y-036000
X038750Y-025250
X038750Y-027300
X040250Y-035300
X043750Y-036000
X066250Y-033500
T2
X023750Y-012500
X023750Y-013500
X023750Y-031500
X023750Y-032500
X024750Y-012500
X024750Y-013500
X024750Y-031500
X024750Y-032500
X025750Y-012500
X025750Y-013500
X025750Y-031500
X025750Y-032500
X026750Y-012500
X026750Y-013500
X026750Y-031500
X026750Y-032500
X027750Y-012500
X027750Y-013500
X027750Y-031500
X027750Y-032500
X028750Y-012500
X028750Y-013500
X028750Y-031500
X028750Y-032500
X029750Y-012500
X029750Y-013500
X029750Y-031500
X029750Y-032500
X030750Y-012500
X030750Y-013500
X030750Y-031500
X030750Y-032500
X031750Y-012500
X031750Y-013500
X031750Y-031500
X031750Y-032500
X032750Y-012500
X032750Y-013500
X032750Y-031500
X032750Y-032500
X033750Y-012500
X033750Y-013500
X033750Y-031500
X033750Y-032500
X034750Y-012500
X034750Y-013500
X034750Y-031500
X034750Y-032500
X035750Y-012500
X035750Y-013500
X035750Y-031500
X035750Y-032500
X036750Y-012500
X036750Y-013500
X036750Y-031500
X036750Y-032500
X037750Y-012500
X037750Y-013500
X037750Y-031500
X037750Y-032500
X038750Y-012500
X038750Y-013500
X038750Y-031500
X038750Y-032500
X039750Y-012500
X039750Y-013500
X039750Y-031500
X039750Y-032500
X040750Y-012500
X040750Y-013500
X040750Y-031500
X040750Y-032500
X041750Y-012500
X041750Y-013500
X041750Y-031500
X041750Y-032500
X042750Y-012500
X042750Y-013500
X042750Y-031500
X042750Y-032500
X043750Y-012500
X043750Y-013500
X043750Y-031500
X043750Y-032500
X044750Y-012500
X044750Y-013500
X044750Y-031500
X044750Y-032500
X045750Y-012500
X045750Y-013500
X045750Y-031500
X045750Y-032500
T3
X062500Y-036000
X063750Y-036000
X065000Y-036000
X067500Y-036000
X070750Y-036000
X072000Y-036000
X073250Y-036000
X074400Y-036000
X076500Y-036000
X077750Y-036000
X079000Y-036000
X080250Y-036000
T0
M30
