G04 (created by PCBNEW (2013-mar-25)-stable) date Saturday, October 26, 2013 01:40:07 PM*
%MOIN*%
G04 Gerber Fmt 3.4, Leading zero omitted, Abs format*
%FSLAX34Y34*%
G01*
G70*
G90*
G04 APERTURE LIST*
%ADD10C,2.3622e-06*%
%ADD11C,0.012*%
%ADD12R,0.079X0.02*%
%ADD13R,0.055X0.035*%
%ADD14R,0.08X0.06*%
%ADD15R,0.035X0.055*%
%ADD16O,0.07X0.256*%
%ADD17R,0.033X0.025*%
%ADD18R,0.0945X0.0276*%
%ADD19C,0.065*%
%ADD20C,0.035*%
%ADD21C,0.1*%
%ADD22C,0.008*%
%ADD23C,0.03*%
%ADD24C,0.05*%
%ADD25C,0.07*%
%ADD26C,0.01*%
G04 APERTURE END LIST*
G54D10*
G54D11*
X10676Y-13171D02*
X10676Y-12828D01*
X10676Y-13000D02*
X11476Y-13000D01*
X11361Y-12942D01*
X11285Y-12885D01*
X11247Y-12828D01*
G54D12*
X21390Y-18750D03*
X21390Y-19250D03*
X21390Y-19750D03*
X21390Y-20250D03*
X21390Y-20750D03*
X21390Y-21250D03*
X21390Y-21750D03*
X21390Y-22250D03*
X24110Y-22250D03*
X24110Y-21750D03*
X24110Y-21250D03*
X24110Y-20750D03*
X24110Y-20250D03*
X24110Y-19750D03*
X24110Y-19250D03*
X24110Y-18750D03*
G54D13*
X37750Y-33970D03*
X37750Y-34730D03*
X40200Y-33970D03*
X40200Y-34730D03*
G54D14*
X66250Y-35800D03*
X66250Y-34500D03*
G54D15*
X69380Y-36000D03*
X68620Y-36000D03*
G54D16*
X15310Y-38580D03*
X16870Y-38580D03*
X18430Y-38580D03*
X19990Y-38580D03*
X21550Y-38580D03*
X23110Y-38580D03*
X24670Y-38580D03*
X26230Y-38580D03*
X27790Y-38580D03*
X29350Y-38580D03*
X30910Y-38580D03*
X32470Y-38580D03*
X34030Y-38580D03*
X35590Y-38580D03*
X37150Y-38580D03*
X38710Y-38580D03*
X40270Y-38580D03*
X41830Y-38580D03*
X52570Y-38580D03*
X54130Y-38580D03*
X55690Y-38580D03*
X57250Y-38580D03*
X58810Y-38580D03*
X60370Y-38580D03*
X61930Y-38580D03*
X63490Y-38580D03*
X65050Y-38580D03*
X66610Y-38580D03*
X68170Y-38580D03*
X69730Y-38580D03*
X71290Y-38580D03*
X72850Y-38580D03*
X74410Y-38580D03*
X75970Y-38580D03*
X77530Y-38580D03*
X79090Y-38580D03*
G54D17*
X38750Y-29190D03*
X38750Y-28310D03*
X37750Y-29190D03*
X37750Y-28310D03*
G54D18*
X31768Y-18750D03*
X31768Y-19250D03*
X31768Y-19750D03*
X31768Y-20250D03*
X31768Y-20750D03*
X31768Y-21250D03*
X31768Y-21750D03*
X31768Y-22250D03*
X31768Y-22750D03*
X31768Y-23250D03*
X31768Y-23750D03*
X31768Y-24250D03*
X35232Y-24250D03*
X35232Y-23750D03*
X35232Y-23250D03*
X35232Y-22750D03*
X35232Y-22250D03*
X35232Y-21750D03*
X35232Y-21250D03*
X35232Y-20750D03*
X35232Y-20250D03*
X35232Y-19750D03*
X35232Y-19250D03*
X35232Y-18750D03*
G54D13*
X32750Y-17380D03*
X32750Y-16620D03*
X34500Y-17380D03*
X34500Y-16620D03*
G54D19*
X45750Y-32500D03*
X45750Y-31500D03*
X44750Y-32500D03*
X44750Y-31500D03*
X43750Y-32500D03*
X43750Y-31500D03*
X42750Y-32500D03*
X42750Y-31500D03*
X41750Y-32500D03*
X41750Y-31500D03*
X40750Y-32500D03*
X40750Y-31500D03*
X39750Y-32500D03*
X39750Y-31500D03*
X38750Y-32500D03*
X38750Y-31500D03*
X37750Y-32500D03*
X37750Y-31500D03*
X36750Y-32500D03*
X36750Y-31500D03*
X35750Y-32500D03*
X35750Y-31500D03*
X34750Y-32500D03*
X34750Y-31500D03*
X33750Y-32500D03*
X33750Y-31500D03*
X32750Y-32500D03*
X32750Y-31500D03*
X31750Y-32500D03*
X31750Y-31500D03*
X30750Y-32500D03*
X30750Y-31500D03*
X29750Y-32500D03*
X29750Y-31500D03*
X28750Y-32500D03*
X28750Y-31500D03*
X27750Y-32500D03*
X27750Y-31500D03*
X26750Y-32500D03*
X26750Y-31500D03*
X25750Y-32500D03*
X25750Y-31500D03*
X24750Y-32500D03*
X24750Y-31500D03*
X23750Y-32500D03*
X23750Y-31500D03*
X45750Y-13500D03*
X45750Y-12500D03*
X44750Y-13500D03*
X44750Y-12500D03*
X43750Y-13500D03*
X43750Y-12500D03*
X42750Y-13500D03*
X42750Y-12500D03*
X41750Y-13500D03*
X41750Y-12500D03*
X40750Y-13500D03*
X40750Y-12500D03*
X39750Y-13500D03*
X39750Y-12500D03*
X38750Y-13500D03*
X38750Y-12500D03*
X37750Y-13500D03*
X37750Y-12500D03*
X36750Y-13500D03*
X36750Y-12500D03*
X35750Y-13500D03*
X35750Y-12500D03*
X34750Y-13500D03*
X34750Y-12500D03*
X33750Y-13500D03*
X33750Y-12500D03*
X32750Y-13500D03*
X32750Y-12500D03*
X31750Y-13500D03*
X31750Y-12500D03*
X30750Y-13500D03*
X30750Y-12500D03*
X29750Y-13500D03*
X29750Y-12500D03*
X28750Y-13500D03*
X28750Y-12500D03*
X27750Y-13500D03*
X27750Y-12500D03*
X26750Y-13500D03*
X26750Y-12500D03*
X25750Y-13500D03*
X25750Y-12500D03*
X24750Y-13500D03*
X24750Y-12500D03*
X23750Y-13500D03*
X23750Y-12500D03*
G54D20*
X37750Y-25250D03*
X37750Y-27300D03*
X38750Y-25250D03*
X38750Y-27300D03*
G54D21*
X67500Y-36000D03*
G54D20*
X43750Y-36000D03*
G54D21*
X62500Y-36000D03*
X65000Y-36000D03*
X63750Y-36000D03*
X70750Y-36000D03*
X73250Y-36000D03*
X72000Y-36000D03*
X74400Y-36000D03*
G54D20*
X30700Y-18250D03*
X30700Y-19250D03*
X38700Y-36000D03*
X37100Y-30600D03*
X37750Y-35300D03*
X36250Y-30800D03*
X40250Y-35300D03*
X37400Y-30250D03*
X66250Y-33500D03*
X30700Y-24250D03*
X34500Y-15750D03*
X32750Y-15750D03*
X36350Y-24250D03*
G54D21*
X79000Y-36000D03*
X77750Y-36000D03*
X80250Y-36000D03*
X76500Y-36000D03*
G54D22*
X37750Y-28310D02*
X37750Y-27300D01*
X38750Y-28310D02*
X38750Y-27300D01*
G54D23*
X34500Y-18750D02*
X34500Y-17380D01*
X35232Y-19250D02*
X35232Y-18750D01*
X35232Y-18750D02*
X34500Y-18750D01*
X34500Y-18750D02*
X34250Y-19000D01*
X34250Y-19000D02*
X34250Y-25000D01*
X34250Y-25000D02*
X34500Y-25250D01*
X34500Y-25250D02*
X37750Y-25250D01*
X37750Y-25250D02*
X38750Y-25250D01*
X38750Y-25250D02*
X44500Y-25250D01*
X44500Y-25250D02*
X44750Y-25500D01*
X44750Y-25500D02*
X44750Y-31500D01*
X44750Y-31500D02*
X44750Y-32500D01*
G54D22*
X68620Y-36000D02*
X67500Y-36000D01*
G54D24*
X43750Y-36000D02*
X43750Y-35250D01*
G54D22*
X31768Y-18750D02*
X24110Y-18750D01*
G54D23*
X32750Y-18750D02*
X32750Y-17380D01*
X33000Y-26000D02*
X33250Y-26250D01*
X31768Y-18750D02*
X32750Y-18750D01*
X33000Y-19000D02*
X33000Y-26000D01*
X32750Y-18750D02*
X33000Y-19000D01*
X43500Y-26250D02*
X33250Y-26250D01*
X43750Y-26500D02*
X43750Y-31500D01*
X43500Y-26250D02*
X43750Y-26500D01*
G54D22*
X63750Y-36000D02*
X65000Y-36000D01*
G54D25*
X65000Y-36000D02*
X67500Y-36000D01*
G54D22*
X62500Y-36000D02*
X63750Y-36000D01*
X43750Y-31500D02*
X43750Y-32500D01*
X69380Y-36000D02*
X70750Y-36000D01*
G54D25*
X74410Y-38580D02*
X74410Y-36000D01*
X74410Y-36000D02*
X74400Y-36000D01*
X72000Y-36000D02*
X73250Y-36000D01*
X73250Y-36000D02*
X74400Y-36000D01*
X70750Y-36000D02*
X72000Y-36000D01*
X74388Y-36000D02*
X74400Y-36000D01*
G54D22*
X42100Y-11700D02*
X15450Y-11700D01*
X42250Y-13000D02*
X42250Y-11850D01*
X42250Y-11850D02*
X42100Y-11700D01*
X42750Y-13500D02*
X42250Y-13000D01*
X15300Y-38570D02*
X15310Y-38580D01*
X15300Y-11850D02*
X15300Y-38570D01*
X15450Y-11700D02*
X15300Y-11850D01*
X37750Y-13500D02*
X37750Y-19950D01*
X37450Y-20250D02*
X35232Y-20250D01*
X37750Y-19950D02*
X37450Y-20250D01*
X38750Y-12500D02*
X38250Y-13000D01*
X37950Y-20750D02*
X35232Y-20750D01*
X38250Y-20450D02*
X37950Y-20750D01*
X38250Y-13000D02*
X38250Y-20450D01*
X38750Y-13500D02*
X38750Y-20950D01*
X38450Y-21250D02*
X35232Y-21250D01*
X38750Y-20950D02*
X38450Y-21250D01*
X39750Y-12500D02*
X39250Y-13000D01*
X38950Y-21750D02*
X35232Y-21750D01*
X39250Y-21450D02*
X38950Y-21750D01*
X39250Y-13000D02*
X39250Y-21450D01*
X39750Y-13500D02*
X39750Y-21950D01*
X39450Y-22250D02*
X35232Y-22250D01*
X39750Y-21950D02*
X39450Y-22250D01*
X40750Y-12500D02*
X40250Y-13000D01*
X39950Y-22750D02*
X35232Y-22750D01*
X40250Y-22450D02*
X39950Y-22750D01*
X40250Y-13000D02*
X40250Y-22450D01*
X40750Y-13500D02*
X40750Y-22950D01*
X40450Y-23250D02*
X35232Y-23250D01*
X40750Y-22950D02*
X40450Y-23250D01*
X41750Y-12500D02*
X41250Y-13000D01*
X40950Y-23750D02*
X35232Y-23750D01*
X41250Y-23450D02*
X40950Y-23750D01*
X41250Y-13000D02*
X41250Y-23450D01*
X30850Y-15250D02*
X30700Y-15400D01*
X36750Y-13500D02*
X36750Y-14950D01*
X36450Y-15250D02*
X36750Y-14950D01*
X30850Y-15250D02*
X36450Y-15250D01*
X30700Y-15400D02*
X30700Y-18250D01*
X31768Y-19250D02*
X30700Y-19250D01*
X30700Y-18250D02*
X30700Y-18250D01*
X38710Y-36010D02*
X38700Y-36000D01*
X38710Y-38580D02*
X38710Y-36010D01*
X36750Y-30600D02*
X36600Y-30450D01*
X37100Y-30600D02*
X36750Y-30600D01*
X25050Y-30300D02*
X25200Y-30450D01*
X36600Y-30450D02*
X25200Y-30450D01*
X24900Y-21750D02*
X25050Y-21900D01*
X25050Y-21900D02*
X25050Y-30300D01*
X24900Y-21750D02*
X24110Y-21750D01*
X37750Y-32500D02*
X38250Y-32000D01*
X37750Y-30600D02*
X37750Y-29190D01*
X38250Y-31100D02*
X37750Y-30600D01*
X38250Y-32000D02*
X38250Y-31100D01*
X37750Y-32500D02*
X37750Y-33970D01*
X21390Y-18750D02*
X19350Y-18750D01*
X18450Y-38560D02*
X18430Y-38580D01*
X18450Y-34500D02*
X18450Y-38560D01*
X18600Y-34350D02*
X18450Y-34500D01*
X19050Y-34350D02*
X18600Y-34350D01*
X19200Y-34200D02*
X19050Y-34350D01*
X19200Y-18900D02*
X19200Y-34200D01*
X19350Y-18750D02*
X19200Y-18900D01*
X21390Y-18750D02*
X23150Y-18750D01*
X26850Y-19600D02*
X27000Y-19750D01*
X26850Y-19150D02*
X26850Y-19600D01*
X26700Y-19000D02*
X26850Y-19150D01*
X23400Y-19000D02*
X26700Y-19000D01*
X23150Y-18750D02*
X23400Y-19000D01*
X31768Y-19750D02*
X27000Y-19750D01*
X19550Y-19000D02*
X19400Y-19150D01*
X23250Y-19250D02*
X23000Y-19000D01*
X23000Y-19000D02*
X19550Y-19000D01*
X24110Y-19250D02*
X23250Y-19250D01*
X20000Y-38570D02*
X19990Y-38580D01*
X20000Y-34500D02*
X20000Y-38570D01*
X19850Y-34350D02*
X20000Y-34500D01*
X19550Y-34350D02*
X19850Y-34350D01*
X19400Y-34200D02*
X19550Y-34350D01*
X19400Y-19150D02*
X19400Y-34200D01*
X24110Y-19250D02*
X26500Y-19250D01*
X26800Y-20250D02*
X31768Y-20250D01*
X26650Y-20100D02*
X26800Y-20250D01*
X26650Y-19400D02*
X26650Y-20100D01*
X26500Y-19250D02*
X26650Y-19400D01*
X21390Y-19250D02*
X19750Y-19250D01*
X21550Y-34300D02*
X21550Y-38580D01*
X21400Y-34150D02*
X21550Y-34300D01*
X19750Y-34150D02*
X21400Y-34150D01*
X19600Y-34000D02*
X19750Y-34150D01*
X19600Y-19400D02*
X19600Y-34000D01*
X19750Y-19250D02*
X19600Y-19400D01*
X21390Y-19250D02*
X22850Y-19250D01*
X26600Y-20750D02*
X31768Y-20750D01*
X26450Y-20600D02*
X26600Y-20750D01*
X26450Y-19650D02*
X26450Y-20600D01*
X26300Y-19500D02*
X26450Y-19650D01*
X23100Y-19500D02*
X26300Y-19500D01*
X22850Y-19250D02*
X23100Y-19500D01*
X19950Y-19500D02*
X19800Y-19650D01*
X22700Y-19500D02*
X19950Y-19500D01*
X24110Y-19750D02*
X22950Y-19750D01*
X22950Y-19750D02*
X22700Y-19500D01*
X23100Y-38570D02*
X23110Y-38580D01*
X23100Y-34100D02*
X23100Y-38570D01*
X22950Y-33950D02*
X23100Y-34100D01*
X19950Y-33950D02*
X22950Y-33950D01*
X19800Y-33800D02*
X19950Y-33950D01*
X19800Y-19650D02*
X19800Y-33800D01*
X24110Y-19750D02*
X26100Y-19750D01*
X26400Y-21250D02*
X31768Y-21250D01*
X26250Y-21100D02*
X26400Y-21250D01*
X26250Y-19900D02*
X26250Y-21100D01*
X26100Y-19750D02*
X26250Y-19900D01*
X21390Y-19750D02*
X20150Y-19750D01*
X24650Y-38560D02*
X24670Y-38580D01*
X24650Y-33900D02*
X24650Y-38560D01*
X24500Y-33750D02*
X24650Y-33900D01*
X20150Y-33750D02*
X24500Y-33750D01*
X20000Y-33600D02*
X20150Y-33750D01*
X20000Y-19900D02*
X20000Y-33600D01*
X20150Y-19750D02*
X20000Y-19900D01*
X21390Y-19750D02*
X22550Y-19750D01*
X26200Y-21750D02*
X31768Y-21750D01*
X26050Y-21600D02*
X26200Y-21750D01*
X26050Y-20150D02*
X26050Y-21600D01*
X25900Y-20000D02*
X26050Y-20150D01*
X22800Y-20000D02*
X25900Y-20000D01*
X22550Y-19750D02*
X22800Y-20000D01*
X20200Y-33400D02*
X20350Y-33550D01*
X22400Y-20000D02*
X20350Y-20000D01*
X20350Y-20000D02*
X20200Y-20150D01*
X20200Y-20150D02*
X20200Y-33400D01*
X24110Y-20250D02*
X22650Y-20250D01*
X22650Y-20250D02*
X22400Y-20000D01*
X26230Y-33680D02*
X26230Y-38580D01*
X26100Y-33550D02*
X26230Y-33680D01*
X20350Y-33550D02*
X26100Y-33550D01*
X25700Y-20250D02*
X25850Y-20400D01*
X24110Y-20250D02*
X25700Y-20250D01*
X26000Y-22250D02*
X25850Y-22100D01*
X25850Y-22100D02*
X25850Y-20400D01*
X26000Y-22250D02*
X31768Y-22250D01*
X20400Y-33200D02*
X20550Y-33350D01*
X20550Y-20250D02*
X20400Y-20400D01*
X20400Y-20400D02*
X20400Y-33200D01*
X21390Y-20250D02*
X20550Y-20250D01*
X27790Y-33490D02*
X27790Y-38580D01*
X27650Y-33350D02*
X27790Y-33490D01*
X20550Y-33350D02*
X27650Y-33350D01*
X25500Y-20500D02*
X25650Y-20650D01*
X22250Y-20250D02*
X22500Y-20500D01*
X22500Y-20500D02*
X25500Y-20500D01*
X21390Y-20250D02*
X22250Y-20250D01*
X25800Y-22750D02*
X25650Y-22600D01*
X25650Y-22600D02*
X25650Y-20650D01*
X25800Y-22750D02*
X31768Y-22750D01*
X29200Y-33150D02*
X29350Y-33300D01*
X24110Y-20750D02*
X22350Y-20750D01*
X29200Y-33150D02*
X20750Y-33150D01*
X20600Y-20650D02*
X20600Y-33000D01*
X20750Y-20500D02*
X20600Y-20650D01*
X22100Y-20500D02*
X20750Y-20500D01*
X22350Y-20750D02*
X22100Y-20500D01*
X20600Y-33000D02*
X20750Y-33150D01*
X29350Y-33300D02*
X29350Y-38580D01*
X31768Y-23250D02*
X25600Y-23250D01*
X25300Y-20750D02*
X24110Y-20750D01*
X25450Y-20900D02*
X25300Y-20750D01*
X25450Y-23100D02*
X25450Y-20900D01*
X25600Y-23250D02*
X25450Y-23100D01*
X36250Y-30800D02*
X36100Y-30650D01*
X24110Y-22250D02*
X24700Y-22250D01*
X24850Y-22400D02*
X24850Y-30500D01*
X24700Y-22250D02*
X24850Y-22400D01*
X36100Y-30650D02*
X25000Y-30650D01*
X24850Y-30500D02*
X25000Y-30650D01*
X37750Y-35300D02*
X37600Y-35450D01*
X34200Y-35450D02*
X34050Y-35600D01*
X37600Y-35450D02*
X34200Y-35450D01*
X37750Y-34730D02*
X37750Y-35300D01*
X34050Y-35600D02*
X34050Y-38560D01*
X34050Y-38560D02*
X34030Y-38580D01*
X25100Y-21250D02*
X24110Y-21250D01*
X25250Y-21400D02*
X25100Y-21250D01*
X25250Y-30100D02*
X25250Y-21400D01*
X25400Y-30250D02*
X25250Y-30100D01*
X37400Y-30250D02*
X25400Y-30250D01*
X40250Y-35300D02*
X39850Y-35650D01*
X35750Y-35650D02*
X35600Y-35800D01*
X39850Y-35650D02*
X35750Y-35650D01*
X40200Y-34730D02*
X40250Y-35300D01*
X35600Y-35800D02*
X35600Y-38570D01*
X35600Y-38570D02*
X35590Y-38580D01*
X41830Y-38580D02*
X41830Y-33230D01*
X41830Y-33230D02*
X41700Y-33100D01*
X41700Y-33100D02*
X40900Y-33100D01*
X40900Y-33100D02*
X40750Y-32950D01*
X40750Y-32950D02*
X40750Y-32500D01*
X37750Y-31500D02*
X37250Y-32000D01*
X30910Y-33340D02*
X30910Y-38580D01*
X31100Y-33150D02*
X30910Y-33340D01*
X37050Y-33150D02*
X31100Y-33150D01*
X37250Y-32950D02*
X37050Y-33150D01*
X37250Y-32000D02*
X37250Y-32950D01*
X33750Y-12500D02*
X33150Y-11900D01*
X16850Y-38560D02*
X16870Y-38580D01*
X16850Y-12050D02*
X16850Y-38560D01*
X17000Y-11900D02*
X16850Y-12050D01*
X33150Y-11900D02*
X17000Y-11900D01*
X40200Y-33970D02*
X40200Y-33250D01*
X39250Y-32000D02*
X39250Y-32950D01*
X39250Y-32950D02*
X39400Y-33100D01*
X39400Y-33100D02*
X40050Y-33100D01*
X40050Y-33100D02*
X40200Y-33250D01*
X39250Y-32000D02*
X38750Y-31500D01*
X38750Y-31500D02*
X38750Y-29190D01*
X37750Y-12500D02*
X37250Y-13000D01*
X36950Y-19750D02*
X35232Y-19750D01*
X37250Y-19450D02*
X36950Y-19750D01*
X37250Y-13000D02*
X37250Y-19450D01*
G54D25*
X66250Y-34500D02*
X66250Y-33500D01*
G54D22*
X31768Y-23750D02*
X31768Y-24250D01*
X31768Y-24250D02*
X30700Y-24250D01*
G54D23*
X34500Y-16620D02*
X34500Y-15750D01*
X32750Y-16620D02*
X32750Y-15750D01*
G54D22*
X35232Y-24250D02*
X36350Y-24250D01*
G54D25*
X80250Y-36000D02*
X79000Y-36000D01*
X77750Y-36000D02*
X76500Y-36000D01*
X79000Y-36000D02*
X77750Y-36000D01*
X75970Y-36000D02*
X76500Y-36000D01*
X75970Y-36000D02*
X75970Y-38580D01*
G54D26*
X69250Y-35550D02*
X75200Y-35550D01*
X69250Y-35630D02*
X75200Y-35630D01*
X69250Y-35710D02*
X75200Y-35710D01*
X69250Y-35790D02*
X75200Y-35790D01*
X69250Y-35870D02*
X75200Y-35870D01*
X69250Y-35950D02*
X75200Y-35950D01*
X69250Y-36030D02*
X75200Y-36030D01*
X69250Y-36110D02*
X75200Y-36110D01*
X69250Y-36190D02*
X75200Y-36190D01*
X69250Y-36270D02*
X75200Y-36270D01*
X69250Y-36350D02*
X75200Y-36350D01*
X69250Y-36430D02*
X75200Y-36430D01*
X75200Y-36450D02*
X69250Y-36450D01*
X69250Y-35550D01*
X75200Y-35550D01*
X75200Y-36450D01*
X43550Y-31550D02*
X43950Y-31550D01*
X43550Y-31630D02*
X43950Y-31630D01*
X43550Y-31710D02*
X43950Y-31710D01*
X43550Y-31790D02*
X43950Y-31790D01*
X43550Y-31870D02*
X43950Y-31870D01*
X43550Y-31950D02*
X43950Y-31950D01*
X43550Y-32030D02*
X43950Y-32030D01*
X43550Y-32110D02*
X43950Y-32110D01*
X43550Y-32190D02*
X43950Y-32190D01*
X43550Y-32270D02*
X43950Y-32270D01*
X43550Y-32350D02*
X43950Y-32350D01*
X43550Y-32430D02*
X43950Y-32430D01*
X43550Y-32510D02*
X43950Y-32510D01*
X43550Y-32590D02*
X43950Y-32590D01*
X43550Y-32670D02*
X43950Y-32670D01*
X43550Y-32750D02*
X43950Y-32750D01*
X43550Y-32830D02*
X43950Y-32830D01*
X43550Y-32910D02*
X43950Y-32910D01*
X43550Y-32990D02*
X43950Y-32990D01*
X43300Y-33070D02*
X44200Y-33070D01*
X43300Y-33150D02*
X44200Y-33150D01*
X43300Y-33230D02*
X44200Y-33230D01*
X43300Y-33310D02*
X44200Y-33310D01*
X43300Y-33390D02*
X44200Y-33390D01*
X43300Y-33470D02*
X44200Y-33470D01*
X43300Y-33550D02*
X44200Y-33550D01*
X43300Y-33630D02*
X44200Y-33630D01*
X43300Y-33710D02*
X44200Y-33710D01*
X43300Y-33790D02*
X44200Y-33790D01*
X43300Y-33870D02*
X44200Y-33870D01*
X43300Y-33950D02*
X44200Y-33950D01*
X43300Y-34030D02*
X44200Y-34030D01*
X43300Y-34110D02*
X44200Y-34110D01*
X43300Y-34190D02*
X44200Y-34190D01*
X43300Y-34270D02*
X44200Y-34270D01*
X43300Y-34350D02*
X44200Y-34350D01*
X43300Y-34430D02*
X44200Y-34430D01*
X43300Y-34510D02*
X44200Y-34510D01*
X43300Y-34590D02*
X44200Y-34590D01*
X43300Y-34670D02*
X44200Y-34670D01*
X43300Y-34750D02*
X44200Y-34750D01*
X43300Y-34830D02*
X44200Y-34830D01*
X43300Y-34910D02*
X44200Y-34910D01*
X43300Y-34990D02*
X44200Y-34990D01*
X43300Y-35070D02*
X44200Y-35070D01*
X43300Y-35150D02*
X44200Y-35150D01*
X43300Y-35230D02*
X44200Y-35230D01*
X43300Y-35310D02*
X44200Y-35310D01*
X43300Y-35390D02*
X44200Y-35390D01*
X43300Y-35470D02*
X44200Y-35470D01*
X43300Y-35550D02*
X68750Y-35550D01*
X43300Y-35630D02*
X68750Y-35630D01*
X43300Y-35710D02*
X68750Y-35710D01*
X43300Y-35790D02*
X68750Y-35790D01*
X43300Y-35870D02*
X68750Y-35870D01*
X43300Y-35950D02*
X68750Y-35950D01*
X43300Y-36030D02*
X68750Y-36030D01*
X43300Y-36110D02*
X68750Y-36110D01*
X43300Y-36190D02*
X68750Y-36190D01*
X43300Y-36270D02*
X68750Y-36270D01*
X43300Y-36350D02*
X68750Y-36350D01*
X43300Y-36430D02*
X68750Y-36430D01*
X68750Y-36450D02*
X43300Y-36450D01*
X43300Y-33050D01*
X43550Y-33050D01*
X43550Y-31550D01*
X43950Y-31550D01*
X43950Y-33050D01*
X44200Y-33050D01*
X44200Y-35550D01*
X68750Y-35550D01*
X68750Y-36450D01*
X75550Y-35550D02*
X80950Y-35550D01*
X75550Y-35630D02*
X80950Y-35630D01*
X75550Y-35710D02*
X80950Y-35710D01*
X75550Y-35790D02*
X80950Y-35790D01*
X75550Y-35870D02*
X80950Y-35870D01*
X75550Y-35950D02*
X80950Y-35950D01*
X75550Y-36030D02*
X80950Y-36030D01*
X75550Y-36110D02*
X80950Y-36110D01*
X75550Y-36190D02*
X80950Y-36190D01*
X75550Y-36270D02*
X80950Y-36270D01*
X75550Y-36350D02*
X80950Y-36350D01*
X75550Y-36430D02*
X80950Y-36430D01*
X80950Y-36450D02*
X75550Y-36450D01*
X75550Y-35550D01*
X80950Y-35550D01*
X80950Y-36450D01*
M02*
